<svg xmlns="http://www.w3.org/2000/svg" xmlns:xlink="http://www.w3.org/1999/xlink" width="512" zoomAndPan="magnify" viewBox="0 0 384 383.999986" height="512" preserveAspectRatio="xMidYMid meet" version="1.0"><path fill="#0470b8" d="M 112.910156 0 C 50.933594 0 0 50.863281 0 112.910156 L 0 271.089844 C 0 333.066406 50.863281 384 112.910156 384 L 271.089844 384 C 333.066406 384 384 333.136719 384 271.089844 L 384 112.910156 C 384 50.933594 333.136719 0 271.089844 0 Z M 112.910156 34.910156 L 271.089844 34.910156 C 314.25 34.910156 349.089844 69.75 349.089844 112.910156 L 349.089844 271.089844 C 349.089844 314.25 314.25 349.089844 271.089844 349.089844 L 112.910156 349.089844 C 69.75 349.089844 34.910156 314.25 34.910156 271.089844 L 34.910156 112.910156 C 34.910156 69.75 69.75 34.910156 112.910156 34.910156 Z M 295.089844 73.089844 C 286.296875 73.089844 279.273438 80.113281 279.273438 88.910156 C 279.273438 97.703125 286.296875 104.726562 295.089844 104.726562 C 303.886719 104.726562 310.910156 97.703125 310.910156 88.910156 C 310.910156 80.113281 303.886719 73.089844 295.089844 73.089844 Z M 192 87.273438 C 134.386719 87.273438 87.273438 134.386719 87.273438 192 C 87.273438 249.613281 134.386719 296.726562 192 296.726562 C 249.613281 296.726562 296.726562 249.613281 296.726562 192 C 296.726562 134.386719 249.613281 87.273438 192 87.273438 Z M 192 122.183594 C 230.796875 122.183594 261.816406 153.203125 261.816406 192 C 261.816406 230.796875 230.796875 261.816406 192 261.816406 C 153.203125 261.816406 122.183594 230.796875 122.183594 192 C 122.183594 153.203125 153.203125 122.183594 192 122.183594 Z M 192 122.183594 " fill-opacity="1" fill-rule="nonzero"/></svg>