<svg xmlns="http://www.w3.org/2000/svg" xmlns:xlink="http://www.w3.org/1999/xlink" width="51" zoomAndPan="magnify" viewBox="0 0 38.25 38.249999" height="51" preserveAspectRatio="xMidYMid meet" version="1.0"><defs><clipPath id="9ae985773a"><path d="M 0 0 L 37.515625 0 L 37.515625 37.515625 L 0 37.515625 Z M 0 0 " clip-rule="nonzero"/></clipPath></defs><g clip-path="url(#9ae985773a)"><path fill="#ffffff" d="M 0 0 L 37.515625 0 L 37.515625 37.515625 L 0 37.515625 Z M 0 0 " fill-opacity="1" fill-rule="nonzero"/><path fill="#ffffff" d="M 0 0 L 37.515625 0 L 37.515625 37.515625 L 0 37.515625 Z M 0 0 " fill-opacity="1" fill-rule="nonzero"/><path fill="#0470b8" d="M 11.03125 0 C 4.976562 0 0 4.96875 0 11.03125 L 0 26.484375 C 0 32.539062 4.96875 37.515625 11.03125 37.515625 L 26.484375 37.515625 C 32.539062 37.515625 37.515625 32.546875 37.515625 26.484375 L 37.515625 11.03125 C 37.515625 4.976562 32.546875 0 26.484375 0 Z M 11.03125 3.410156 L 26.484375 3.410156 C 30.699219 3.410156 34.105469 6.8125 34.105469 11.03125 L 34.105469 26.484375 C 34.105469 30.699219 30.699219 34.105469 26.484375 34.105469 L 11.03125 34.105469 C 6.8125 34.105469 3.410156 30.699219 3.410156 26.484375 L 3.410156 11.03125 C 3.410156 6.8125 6.8125 3.410156 11.03125 3.410156 Z M 28.828125 7.140625 C 27.96875 7.140625 27.285156 7.828125 27.285156 8.6875 C 27.285156 9.546875 27.96875 10.230469 28.828125 10.230469 C 29.6875 10.230469 30.375 9.546875 30.375 8.6875 C 30.375 7.828125 29.6875 7.140625 28.828125 7.140625 Z M 18.757812 8.527344 C 13.128906 8.527344 8.527344 13.128906 8.527344 18.757812 C 8.527344 24.386719 13.128906 28.988281 18.757812 28.988281 C 24.386719 28.988281 28.988281 24.386719 28.988281 18.757812 C 28.988281 13.128906 24.386719 8.527344 18.757812 8.527344 Z M 18.757812 11.9375 C 22.546875 11.9375 25.578125 14.96875 25.578125 18.757812 C 25.578125 22.546875 22.546875 25.578125 18.757812 25.578125 C 14.96875 25.578125 11.9375 22.546875 11.9375 18.757812 C 11.9375 14.96875 14.96875 11.9375 18.757812 11.9375 Z M 18.757812 11.9375 " fill-opacity="1" fill-rule="nonzero"/></g></svg>