<svg xmlns="http://www.w3.org/2000/svg" viewBox="0 0 731 322" width="149" height="66"><title>colorida_horizontal-svg</title><style>		.s0 { fill: #c60c0e } 		.s1 { fill: #1d1d1b } 	</style><path id="Layer" fill-rule="evenodd" class="s0" d="m308.7 205.5l7.3-12c7.5 5.9 15.8 8.7 23.3 8.7 9.3 0 18.4-4.3 18.2-13.2-0.2-7.3-7.5-9.5-13.2-11.5-2.6-1-5.5-2.2-8.1-3.4-12.6-4.7-25.1-9.5-25.1-25.9 0-18.4 16.4-28.2 32.4-28.2 9.3 0 18 3.2 28 8.9l-7.1 12.4c-8.3-4.7-14.2-6.5-20.3-6.5-7.9 0-15.2 4.1-15.2 11.6 0 3.6 2 5.9 6.1 7.9 4.5 2 10.3 4.2 15.8 6.3 5.5 2.2 11.1 4.4 16 8.1 5.3 4.1 9.3 9.9 9.1 19.1-0.4 20.4-19.6 29.4-36.5 29.4-10.6-0.1-21.2-4.4-30.7-11.7z"></path><path id="Layer" fill-rule="evenodd" class="s0" d="m416.3 216.2c-16.6-0.4-30.6-14-30.6-31 0.4-18.4 14.8-29.6 32.4-29.6h21.5v-6.3c0-8.5-7.9-14.6-16.4-14.6-8.5 0-14.4 2-24.1 6.9l-5.3-12.1c12.4-6.7 20.7-8.7 33-8.9 15.2 0 30.8 10.1 30.8 27.9l0.2 51.5c-9.3 9.3-23.5 16.4-41.5 16zm6-46.7c-10.1 0-17.2 5.9-17.2 15.4 0 8.9 7.3 17.4 17.6 17.6 7.1 0 13.8-3.6 16.4-6.1v-26.7z"></path><path id="Layer" fill-rule="evenodd" class="s0" d="m519.4 216.5c-30.2-1-41.9-16-42.5-17v-123.6l18.4-6.3v56.9c7.3-4.1 15.2-6.5 24.1-6.3 25.7 0.8 37.1 23.5 37.1 46.2-0.2 25.7-12.8 50.6-37.1 49.8zm-3.3-81.5c-7.7-0.6-16 3-20.9 5.7v55.9c2.4 2 11.1 6.5 22.1 5.9 14.6-0.6 18.8-20.1 18.8-35.1 0-15-3-31.4-19.8-32.4z"></path><path id="Layer" fill-rule="evenodd" class="s0" d="m575.7 125.7l19-6.3v95.2h-18.8zm-2.9-31.4c0-6.9 5.5-12.4 12.4-12.4 6.9 0 12.4 5.5 12.2 12.4 0 6.9-5.5 12.4-12.4 12.4-6.9 0-12.3-5.5-12.3-12.4z"></path><path id="Layer" fill-rule="evenodd" class="s0" d="m670.1 152.9c0-11.9-7.5-18.4-19.2-18.2-6.7 0.2-13.2 3-17.4 5.9v74.1h-18.8v-78.2c8.3-6.1 15.2-10.5 24.5-13.2 7.3-2 17.4-4.1 28.4-1.6 11.2 2.4 21.5 10.7 21.5 24.1v68.9h-18.8z"></path><path id="Layer" fill-rule="evenodd" class="s0" d="m272.3 167.6c0 68.7-55.6 124.4-124.3 124.4-68.7 0-124.4-55.6-124.4-124.3 0-68.7 55.7-124.4 124.4-124.4 16.7 0 32.6 3.3 47.2 9.3l0.6 0.2h-0.1c-7.1 9.2-33.6 45.2-33.8 77.9 0 1.2 0.1 2.5 0.2 3.8 0.9 7.9 3.9 15.4 7.5 22.5 5.5 10.6 12.4 20.5 16.6 31.8 2.5 6.9 4.4 14.6 2.1 21.8-3.1 9.5-13.4 16.5-21.5 21.4-18.5 11.2-43.7 18-64.6 9.2-3.9-1.7-7.7-4.1-8.9-8.4-1.2-4.1 0-8.6 1.4-12.5 5.2-14.5 14.4-27.1 22.5-40.2 12.8-20.7 23.2-44.1 21.5-68.3-1.3 15.6-7 30.5-14.9 44.1-7.9 13.6-17.8 25.8-28.1 37.6-8.8 10.1-18.2 20.6-20.8 33.7-1.2 6-0.8 12.5 2.5 17.6 3.6 5.6 10.1 8.8 16.5 9.9 2.3 0.4 4.7 0.7 7 0.9 26.9 2.1 55.3-7 77.8-21.1 16.3-10.2 40-30.2 28-51.7-2-3.5-3.9-7-6.2-10.3-3.8-5.5-17.3-24.1-20.3-31.7-3-7.5-20-28.4 16-88l0.5 0.2c44.6 18.9 75.8 63.1 75.6 114.6z"></path><g id="Layer"><path id="Layer" fill-rule="evenodd" class="s1" d="m312.3 240.8h8.1c7.4 0 12.2 4.4 12.2 11.9 0 7.5-4.8 12-12.2 12h-8.1zm7.9 20.2c4.8 0 7.9-2.9 7.9-8.2 0-5.3-3.2-8.2-7.9-8.2h-3.6v16.4z"></path><path id="Layer" class="s1" d="m337.1 240.8h4.3v23.9h-4.3z"></path></g><g id="Layer"><path id="Layer" fill-rule="evenodd" class="s1" d="m359.4 258.6h-8.4l-2 6.1h-4.5l8.4-23.9h4.5l8.4 23.9h-4.5zm-4.2-13.7c0 0-0.5 2.4-1 3.7l-2.1 6.4h6.3l-2.1-6.4c-0.5-1.3-1-3.7-1.1-3.7z"></path></g><g id="Layer"><path id="Layer" class="s1" d="m379.6 240.4c5.9 0 8.9 3 8.9 3l-2.2 3.2c0 0-2.6-2.3-6.4-2.3-5.4 0-8.2 3.7-8.2 8.2 0 5.2 3.5 8.5 8 8.5 3.6 0 6-2.5 6-2.5v-2.8h-3.7v-3.7h7.6v12.6h-3.7v-1.1c0-0.5 0-1 0-1h-0.1c0 0-2.5 2.6-6.9 2.6-6.3 0-11.7-4.9-11.7-12.4 0-6.9 5.3-12.3 12.4-12.3z"></path><path id="Layer" class="s1" d="m394.4 240.8h4.3l9.1 13.8c0.9 1.4 2 3.7 2 3.7h0.1c0 0-0.2-2.3-0.2-3.7v-13.8h4.3v23.9h-4.3l-9.1-13.8c-0.9-1.4-2-3.7-2-3.7h-0.1c0 0 0.2 2.3 0.2 3.7v13.8h-4.3z"></path><path id="Layer" fill-rule="evenodd" class="s1" d="m430.7 240.4c7 0 12.4 5.4 12.4 12.2 0 7-5.3 12.5-12.4 12.5-7 0-12.4-5.5-12.4-12.5 0.1-6.9 5.4-12.2 12.4-12.2zm0 20.7c4.4 0 7.9-3.6 7.9-8.5 0-4.7-3.5-8.2-7.9-8.2-4.4 0-7.9 3.5-7.9 8.2 0 4.9 3.5 8.5 7.9 8.5zm0.7-26.5h4.4l-3.5 4.6h-3.4z"></path><path id="Layer" class="s1" d="m448 258.6c0 0 2.6 2.5 6 2.5 1.8 0 3.5-0.9 3.5-2.9 0-4.3-11.3-3.5-11.3-10.9 0-4 3.4-6.9 8-6.9 4.7 0 7.1 2.6 7.1 2.6l-1.9 3.5c0 0-2.3-2.1-5.3-2.1-2 0-3.6 1.2-3.6 2.9 0 4.2 11.2 3.2 11.2 10.8 0 3.8-2.9 7-7.9 7-5.3 0-8.2-3.3-8.2-3.3z"></path><path id="Layer" class="s1" d="m471.1 244.5h-7.8v-3.7h20v3.7h-7.8v20.2h-4.3v-20.2z"></path><path id="Layer" class="s1" d="m486.4 240.8h4.3v23.9h-4.3z"></path></g><g id="Layer"><path id="Layer" class="s1" d="m507.5 240.4c5.8 0 8.8 3.3 8.8 3.3l-2.1 3.2c0 0-2.7-2.5-6.5-2.5-5 0-8 3.8-8 8.2 0 4.5 3.1 8.5 8 8.5 4.1 0 6.9-3 6.9-3l2.3 3.1c0 0-3.3 3.9-9.4 3.9-7.3 0-12.4-5.4-12.4-12.5 0.1-6.9 5.3-12.2 12.4-12.2z"></path></g><g id="Layer"><path id="Layer" fill-rule="evenodd" class="s1" d="m531.5 240.4c7 0 12.4 5.4 12.4 12.2 0 7-5.3 12.5-12.4 12.5-7.1 0-12.4-5.5-12.4-12.5 0.1-6.9 5.4-12.2 12.4-12.2zm0 20.7c4.4 0 7.9-3.6 7.9-8.5 0-4.7-3.5-8.2-7.9-8.2-4.4 0-7.9 3.5-7.9 8.2 0 4.9 3.5 8.5 7.9 8.5z"></path><path id="Layer" class="s1" d="m556.5 240.8h14.3v3.7h-10v6.3h8v3.7h-8v6.4h10.5v3.7h-14.8z"></path><path id="Layer" class="s1" d="m584.5 258.6c0 0 2.6 2.5 6 2.5 1.8 0 3.5-0.9 3.5-2.9 0-4.3-11.3-3.5-11.3-10.9 0-4 3.4-6.9 8-6.9 4.7 0 7.1 2.6 7.1 2.6l-1.9 3.5c0 0-2.3-2.1-5.3-2.1-2 0-3.6 1.2-3.6 2.9 0 4.2 11.2 3.2 11.2 10.8 0 3.8-2.9 7-7.9 7-5.3 0-8.2-3.3-8.2-3.3z"></path></g><g id="Layer"><path id="Layer" fill-rule="evenodd" class="s1" d="m614.5 258.6h-8.4l-2 6.1h-4.5l8.4-23.9h4.5l8.4 23.9h-4.5zm-4.2-13.7c0 0-0.5 2.4-1 3.7l-2.1 6.4h6.3l-2.1-6.4c-0.5-1.3-1-3.7-1.1-3.7z"></path></g><g id="Layer"><path id="Layer" class="s1" d="m623.5 240.8h4.3v15.3c0 3.2 2.1 5 5.3 5 3.2 0 5.3-1.8 5.3-5v-15.3h4.3v15.3c0 5.4-3.9 9-9.6 9-5.8 0-9.7-3.6-9.7-9v-15.3zm10.4-6.2h4.4l-3.5 4.6h-3.4z"></path><path id="Layer" fill-rule="evenodd" class="s1" d="m648.5 240.8h8.1c7.4 0 12.2 4.4 12.2 11.9 0 7.5-4.8 12-12.2 12h-8.1zm7.9 20.2c4.8 0 7.9-2.9 7.9-8.2 0-5.3-3.2-8.2-7.9-8.2h-3.6v16.4z"></path><path id="Layer" class="s1" d="m673.4 240.8h14.3v3.7h-10v6.3h8v3.7h-8v6.4h10.5v3.7h-14.8z"></path></g></svg>