<svg xmlns="http://www.w3.org/2000/svg" xmlns:xlink="http://www.w3.org/1999/xlink" width="51" zoomAndPan="magnify" viewBox="0 0 38.25 38.249999" height="51" preserveAspectRatio="xMidYMid meet" version="1.0"><defs><clipPath id="a00ae6e6ae"><path d="M 0 0 L 37.515625 0 L 37.515625 37.515625 L 0 37.515625 Z M 0 0 " clip-rule="nonzero"/></clipPath><clipPath id="40d50fd87f"><path d="M 0 0.0234375 L 37.492188 0.0234375 L 37.492188 37.515625 L 0 37.515625 Z M 0 0.0234375 " clip-rule="nonzero"/></clipPath><clipPath id="8ef575d0e5"><path d="M 18.746094 0.0234375 C 8.394531 0.0234375 0 8.417969 0 18.769531 C 0 29.121094 8.394531 37.515625 18.746094 37.515625 C 29.097656 37.515625 37.492188 29.121094 37.492188 18.769531 C 37.492188 8.417969 29.097656 0.0234375 18.746094 0.0234375 Z M 18.746094 0.0234375 " clip-rule="nonzero"/></clipPath><clipPath id="1948f0a82b"><path d="M 3.75 3.75 L 33.761719 3.75 L 33.761719 33.761719 L 3.75 33.761719 Z M 3.75 3.75 " clip-rule="nonzero"/></clipPath><clipPath id="0d6077c28a"><path d="M 18.757812 3.75 C 10.46875 3.75 3.75 10.46875 3.75 18.757812 C 3.75 27.042969 10.46875 33.761719 18.757812 33.761719 C 27.042969 33.761719 33.761719 27.042969 33.761719 18.757812 C 33.761719 10.46875 27.042969 3.75 18.757812 3.75 Z M 18.757812 3.75 " clip-rule="nonzero"/></clipPath><clipPath id="727f8d09bd"><path d="M 9.097656 9.085938 L 28.222656 9.085938 L 28.222656 28.210938 L 9.097656 28.210938 Z M 9.097656 9.085938 " clip-rule="nonzero"/></clipPath></defs><g clip-path="url(#a00ae6e6ae)"><path fill="#ffffff" d="M 0 0 L 37.515625 0 L 37.515625 37.515625 L 0 37.515625 Z M 0 0 " fill-opacity="1" fill-rule="nonzero"/><path fill="#ffffff" d="M 0 0 L 37.515625 0 L 37.515625 37.515625 L 0 37.515625 Z M 0 0 " fill-opacity="1" fill-rule="nonzero"/></g><g clip-path="url(#40d50fd87f)"><g clip-path="url(#8ef575d0e5)"><path fill="#1eabe3" d="M 0 0.0234375 L 37.492188 0.0234375 L 37.492188 37.515625 L 0 37.515625 Z M 0 0.0234375 " fill-opacity="1" fill-rule="nonzero"/></g></g><g clip-path="url(#1948f0a82b)"><g clip-path="url(#0d6077c28a)"><path fill="#ffffff" d="M 3.75 3.75 L 33.761719 3.75 L 33.761719 33.761719 L 3.75 33.761719 Z M 3.75 3.75 " fill-opacity="1" fill-rule="nonzero"/></g></g><g clip-path="url(#727f8d09bd)"><path fill="#1eabe3" d="M 12.949219 17.367188 C 14.476562 20.375 16.9375 22.832031 19.949219 24.363281 L 22.285156 22.019531 C 22.578125 21.726562 23 21.644531 23.367188 21.761719 C 24.554688 22.152344 25.835938 22.367188 27.160156 22.367188 C 27.75 22.367188 28.222656 22.839844 28.222656 23.429688 L 28.222656 27.148438 C 28.222656 27.738281 27.75 28.210938 27.160156 28.210938 C 17.183594 28.210938 9.097656 20.125 9.097656 10.148438 C 9.097656 9.558594 9.574219 9.085938 10.160156 9.085938 L 13.878906 9.085938 C 14.46875 9.085938 14.941406 9.558594 14.941406 10.148438 C 14.941406 11.46875 15.152344 12.75 15.546875 13.941406 C 15.664062 14.304688 15.578125 14.726562 15.285156 15.019531 Z M 12.949219 17.367188 " fill-opacity="1" fill-rule="nonzero"/></g></svg>