<svg xmlns="http://www.w3.org/2000/svg" xmlns:xlink="http://www.w3.org/1999/xlink" width="51" zoomAndPan="magnify" viewBox="0 0 38.25 38.249999" height="51" preserveAspectRatio="xMidYMid meet" version="1.0"><defs><clipPath id="c5524819ab"><path d="M 0 0.0234375 L 37.515625 0.0234375 L 37.515625 37.515625 L 0 37.515625 Z M 0 0.0234375 " clip-rule="nonzero"/></clipPath></defs><g clip-path="url(#c5524819ab)"><path fill="#1eabe3" d="M 18.828125 0.0273438 C 8.507812 0.0234375 0.136719 8.402344 0.136719 18.742188 C 0.136719 21.859375 0.898438 24.796875 2.246094 27.382812 L 0.25 35.609375 C 0.00390625 36.632812 0.953125 37.539062 1.960938 37.238281 L 9.546875 34.988281 C 12.28125 36.558594 15.449219 37.457031 18.824219 37.457031 C 29.144531 37.457031 37.511719 29.078125 37.511719 18.742188 C 37.511719 8.40625 29.148438 0.0273438 18.828125 0.0273438 Z M 18.824219 33.691406 C 10.582031 33.691406 3.898438 27 3.898438 18.742188 C 3.898438 10.480469 10.574219 3.789062 18.824219 3.789062 C 27.070312 3.789062 33.753906 10.484375 33.753906 18.742188 C 33.753906 27.003906 27.074219 33.691406 18.824219 33.691406 Z M 18.824219 33.691406 " fill-opacity="1" fill-rule="nonzero"/></g><path fill="#ffffff" d="M 33.753906 18.742188 C 33.753906 19.722656 33.65625 20.695312 33.464844 21.65625 C 33.273438 22.621094 32.992188 23.554688 32.617188 24.460938 C 32.242188 25.371094 31.78125 26.230469 31.238281 27.046875 C 30.691406 27.863281 30.074219 28.617188 29.378906 29.3125 C 28.6875 30.007812 27.933594 30.625 27.117188 31.171875 C 26.304688 31.71875 25.441406 32.179688 24.539062 32.554688 C 23.632812 32.929688 22.699219 33.210938 21.738281 33.40625 C 20.777344 33.597656 19.804688 33.691406 18.824219 33.691406 C 17.84375 33.691406 16.875 33.597656 15.914062 33.40625 C 14.953125 33.210938 14.019531 32.929688 13.113281 32.554688 C 12.207031 32.179688 11.347656 31.71875 10.53125 31.171875 C 9.714844 30.625 8.960938 30.007812 8.269531 29.3125 C 7.578125 28.617188 6.957031 27.863281 6.414062 27.046875 C 5.867188 26.230469 5.410156 25.371094 5.035156 24.460938 C 4.660156 23.554688 4.375 22.621094 4.183594 21.65625 C 3.992188 20.695312 3.898438 19.722656 3.898438 18.742188 C 3.898438 17.757812 3.992188 16.789062 4.183594 15.824219 C 4.375 14.863281 4.660156 13.925781 5.035156 13.019531 C 5.410156 12.113281 5.867188 11.25 6.414062 10.433594 C 6.957031 9.617188 7.578125 8.863281 8.269531 8.167969 C 8.960938 7.476562 9.714844 6.855469 10.53125 6.308594 C 11.347656 5.765625 12.207031 5.304688 13.113281 4.929688 C 14.019531 4.554688 14.953125 4.269531 15.914062 4.078125 C 16.875 3.886719 17.84375 3.789062 18.824219 3.789062 C 19.804688 3.789062 20.777344 3.886719 21.738281 4.078125 C 22.699219 4.269531 23.632812 4.554688 24.539062 4.929688 C 25.441406 5.304688 26.304688 5.765625 27.117188 6.308594 C 27.933594 6.855469 28.6875 7.476562 29.378906 8.167969 C 30.074219 8.863281 30.691406 9.617188 31.238281 10.433594 C 31.78125 11.25 32.242188 12.113281 32.617188 13.019531 C 32.992188 13.925781 33.273438 14.863281 33.464844 15.824219 C 33.65625 16.789062 33.753906 17.757812 33.753906 18.742188 Z M 33.753906 18.742188 " fill-opacity="1" fill-rule="nonzero"/><path fill="#1eabe3" d="M 16.871094 13.753906 L 16.277344 11.246094 C 16.011719 10.125 14.886719 9.429688 13.765625 9.695312 C 13.6875 9.710938 13.613281 9.734375 13.539062 9.761719 L 12.171875 10.253906 C 11.253906 10.585938 10.6875 11.511719 10.808594 12.480469 C 11.285156 16.359375 13.476562 25.742188 23.566406 27.800781 C 24.386719 27.96875 25.226562 27.632812 25.703125 26.945312 L 26.488281 25.808594 C 27.144531 24.859375 26.90625 23.558594 25.960938 22.902344 C 25.953125 22.898438 25.949219 22.894531 25.945312 22.890625 L 24.21875 21.714844 C 23.453125 21.191406 22.433594 21.238281 21.71875 21.832031 C 21.007812 22.421875 19.996094 22.472656 19.226562 21.957031 C 18.179688 21.25 16.757812 20.074219 15.835938 18.449219 C 15.410156 17.699219 15.484375 16.769531 16.019531 16.097656 L 16.464844 15.546875 C 16.867188 15.042969 17.019531 14.382812 16.871094 13.753906 Z M 16.871094 13.753906 " fill-opacity="1" fill-rule="nonzero"/></svg>